<svg width="110" height="110" viewBox="0 0 110 110" fill="none" xmlns="http://www.w3.org/2000/svg">
<g filter="url(#filter0_d_202_298)">
<circle cx="45" cy="45" r="15" fill="url(#paint0_linear_202_298)"/>
<circle cx="45" cy="45" r="14.5" stroke="#DA9454"/>
</g>
<path d="M40.8974 39H49.1026C50.1363 39 51.1276 39.4197 51.8585 40.1668C52.5894 40.9139 53 41.9273 53 42.9839V48.0161C53 49.0727 52.5894 50.0861 51.8585 50.8332C51.1276 51.5803 50.1363 52 49.1026 52H40.8974C39.8637 52 38.8724 51.5803 38.1415 50.8332C37.4106 50.0861 37 49.0727 37 48.0161V42.9839C37 41.9273 37.4106 40.9139 38.1415 40.1668C38.8724 39.4197 39.8637 39 40.8974 39V39ZM39.8062 43.0675L42.6041 45.2901V45.2902C43.2892 45.8343 44.1322 46.1296 44.9999 46.1296C45.8676 46.1296 46.7106 45.8343 47.3958 45.2902L50.1937 43.0675C50.3355 42.9702 50.4312 42.817 50.4583 42.6447C50.4852 42.4723 50.4408 42.2962 50.3359 42.1587C50.2308 42.0211 50.0746 41.9341 49.9045 41.9188C49.7345 41.9035 49.5658 41.9611 49.4389 42.0779L46.641 44.3005C46.1711 44.6719 45.5939 44.8734 44.9999 44.8734C44.406 44.8734 43.8288 44.6719 43.3589 44.3005L40.561 42.0779C40.434 41.9611 40.2654 41.9035 40.0953 41.9188C39.9253 41.9341 39.7691 42.0211 39.664 42.1587C39.559 42.2963 39.5147 42.4723 39.5416 42.6447C39.5687 42.817 39.6644 42.9702 39.8062 43.0675L39.8062 43.0675Z" fill="#FFEEEE"/>
<defs>
<filter id="filter0_d_202_298" x="0" y="0" width="110" height="110" filterUnits="userSpaceOnUse" color-interpolation-filters="sRGB">
<feFlood flood-opacity="0" result="BackgroundImageFix"/>
<feColorMatrix in="SourceAlpha" type="matrix" values="0 0 0 0 0 0 0 0 0 0 0 0 0 0 0 0 0 0 127 0" result="hardAlpha"/>
<feOffset dx="10" dy="10"/>
<feGaussianBlur stdDeviation="20"/>
<feComposite in2="hardAlpha" operator="out"/>
<feColorMatrix type="matrix" values="0 0 0 0 0 0 0 0 0 0 0 0 0 0 0 0 0 0 0.25 0"/>
<feBlend mode="normal" in2="BackgroundImageFix" result="effect1_dropShadow_202_298"/>
<feBlend mode="normal" in="SourceGraphic" in2="effect1_dropShadow_202_298" result="shape"/>
</filter>
<linearGradient id="paint0_linear_202_298" x1="33.5" y1="33.5" x2="55" y2="60" gradientUnits="userSpaceOnUse">
<stop stop-color="#FFA7A7"/>
<stop offset="0.677083" stop-color="#F86666"/>
<stop offset="1" stop-color="#D04848"/>
</linearGradient>
</defs>
</svg>
