<svg width="43" height="43" viewBox="0 0 43 43" fill="none" xmlns="http://www.w3.org/2000/svg">
<circle cx="21.1782" cy="21.1797" r="21.1782" fill="url(#paint0_linear_202_343)"/>
<circle cx="21.1782" cy="21.1797" r="20.6782" stroke="#42D7BC" stroke-opacity="0.4"/>
<path d="M26.1095 19.1942H24.3162H23.6757V18.5538V16.5683V15.9278H24.3162H25.6612C26.0134 15.9278 26.3017 15.6716 26.3017 15.2874V11.8929C26.3017 11.5406 26.0455 11.2524 25.6612 11.2524H23.3235C20.7936 11.2524 19.0323 13.0457 19.0323 15.7037V18.4897V19.1302H18.3918H16.2142C15.7659 19.1302 15.3496 19.4824 15.3496 19.9948V22.3005C15.3496 22.7488 15.7019 23.1651 16.2142 23.1651H18.3278H18.9683V23.8056V30.2423C18.9683 30.6907 19.3205 31.107 19.8329 31.107H22.8431C23.0353 31.107 23.1954 31.0109 23.3235 30.8828C23.4516 30.7547 23.5476 30.5306 23.5476 30.3384V23.8376V23.1972H24.2201H25.6612C26.0775 23.1972 26.3977 22.941 26.4618 22.5567V22.5247V22.4926L26.9101 20.283C26.9421 20.0589 26.9101 19.8027 26.718 19.5465C26.6539 19.3864 26.3657 19.2263 26.1095 19.1942Z" fill="#E9FAFF"/>
<defs>
<linearGradient id="paint0_linear_202_343" x1="7.51485" y1="6.83315" x2="32.1089" y2="39.9668" gradientUnits="userSpaceOnUse">
<stop offset="0.03125" stop-color="#27B1FF"/>
<stop offset="0.348958" stop-color="#0FA3D1"/>
<stop offset="1" stop-color="#2265B3"/>
</linearGradient>
</defs>
</svg>
