<svg width="103" height="110" viewBox="0 0 103 110" fill="none" xmlns="http://www.w3.org/2000/svg">
<g filter="url(#filter0_d_202_310)">
<circle cx="45" cy="45" r="15" fill="url(#paint0_linear_202_310)"/>
<circle cx="45" cy="45" r="14.5" stroke="#27C13F"/>
</g>
<path d="M41.2215 37.603C40.0599 37.603 38.8982 38.0479 38.0082 38.938C36.4919 40.4544 36.2683 42.7585 37.3354 44.5084L43.5725 44.4947L44.2374 45.4888L46.4381 40.9413L44.4348 38.9381C43.5447 38.048 42.3831 37.6031 41.2216 37.6031L41.2215 37.603ZM46.7291 42.0053L44.335 46.8673L43.0853 45.2347H37.8848C37.9253 45.2784 37.9656 45.3219 38.008 45.3644L41.6232 48.9793C43.4033 50.7594 46.2694 50.7594 48.0495 48.9793C48.9991 48.0296 49.4418 46.7711 49.3781 45.5329H48.6416L46.7291 42.0053ZM47.6166 42.1201L49.0735 44.8075H49.2811C49.1029 43.9826 48.6932 43.1967 48.0495 42.5531L47.6166 42.1201Z" fill="#FFE6F8"/>
<path d="M38.0195 45.3766L44.8355 52.1926L51.495 45.5331H48.6407L48.5557 45.3766H45.0682L44.334 46.8674L43.1928 45.3766L38.0195 45.3766ZM44.1614 45.3766L44.2364 45.4889L44.2907 45.3766H44.1614Z" fill="#FFE6F8"/>
<path d="M48.4512 37.603C47.2897 37.603 46.1281 38.0479 45.2381 38.938L41.6232 42.5532C41.0596 43.1167 40.6752 43.7893 40.4686 44.5018L43.5723 44.4948L44.2372 45.4889L46.6922 40.4153L49.0735 44.8076H52.1386C53.4264 43.029 53.269 40.5426 51.6646 38.9382C50.7745 38.0481 49.6129 37.6032 48.4513 37.6032L48.4512 37.603ZM46.729 42.0053L44.3349 46.8673L43.0853 45.2347H40.3203C40.1635 46.5666 40.597 47.9533 41.6231 48.9795C43.4033 50.7596 46.2694 50.7596 48.0494 48.9795L51.4958 45.5331H48.6415L46.729 42.0053Z" fill="#FFE6F8"/>
<defs>
<filter id="filter0_d_202_310" x="0" y="0" width="110" height="110" filterUnits="userSpaceOnUse" color-interpolation-filters="sRGB">
<feFlood flood-opacity="0" result="BackgroundImageFix"/>
<feColorMatrix in="SourceAlpha" type="matrix" values="0 0 0 0 0 0 0 0 0 0 0 0 0 0 0 0 0 0 127 0" result="hardAlpha"/>
<feOffset dx="10" dy="10"/>
<feGaussianBlur stdDeviation="20"/>
<feComposite in2="hardAlpha" operator="out"/>
<feColorMatrix type="matrix" values="0 0 0 0 0 0 0 0 0 0 0 0 0 0 0 0 0 0 0.25 0"/>
<feBlend mode="normal" in2="BackgroundImageFix" result="effect1_dropShadow_202_310"/>
<feBlend mode="normal" in="SourceGraphic" in2="effect1_dropShadow_202_310" result="shape"/>
</filter>
<linearGradient id="paint0_linear_202_310" x1="36.5" y1="34" x2="54" y2="57.5" gradientUnits="userSpaceOnUse">
<stop stop-color="#A0F36D"/>
<stop offset="0.578125" stop-color="#73D934"/>
<stop offset="1" stop-color="#50B711"/>
</linearGradient>
</defs>
</svg>
