<svg width="43" height="43" viewBox="0 0 43 43" fill="none" xmlns="http://www.w3.org/2000/svg">
<circle cx="21.1782" cy="21.3579" r="21.1782" fill="url(#paint0_linear_217_72)"/>
<path d="M21 31.1797C20.0137 31.1797 19.2143 30.3803 19.2143 29.394V22.9654H12.7857C11.7994 22.9654 11 22.166 11 21.1797C11 20.1934 11.7994 19.394 12.7857 19.394H19.2143V12.9654C19.2143 11.9791 20.0137 11.1797 21 11.1797C21.9863 11.1797 22.7857 11.9791 22.7857 12.9654V19.394H29.2143C30.2006 19.394 31 20.1934 31 21.1797C31 22.166 30.2006 22.9654 29.2143 22.9654H22.7857V29.394C22.7857 30.3803 21.9863 31.1797 21 31.1797Z" fill="#E9E9E9"/>
<defs>
<linearGradient id="paint0_linear_217_72" x1="11.2951" y1="3.00345" x2="34.5911" y2="36.1827" gradientUnits="userSpaceOnUse">
<stop stop-color="#D7D7D7" stop-opacity="0.8"/>
<stop offset="1" stop-color="#B1B1B1" stop-opacity="0.5"/>
</linearGradient>
</defs>
</svg>
