<svg width="102" height="110" viewBox="0 0 102 110" fill="none" xmlns="http://www.w3.org/2000/svg">
<g filter="url(#filter0_d_202_228)">
<circle cx="45" cy="45" r="15" fill="url(#paint0_linear_202_228)"/>
<circle cx="45" cy="45" r="14.5" stroke="#CC9E58"/>
</g>
<path fill-rule="evenodd" clip-rule="evenodd" d="M46.4172 43.8453H44.0639L43.584 46.1547H45.9371L46.4172 43.8453ZM42.6239 39L44.9772 39.4526L44.5439 41.5358H46.8959L47.4239 39L49.7772 39.4526L49.344 41.5358H51V43.8453H48.8639L48.384 46.1547H51V48.4643H47.904L47.3771 51L45.024 50.5474L45.4559 48.4642H43.1039L42.5771 51L40.2238 50.5474L40.656 48.4642H39V46.1547H41.1371L41.6171 43.8453H39V41.5357H42.096L42.6239 39Z" fill="#FFFFF4"/>
<defs>
<filter id="filter0_d_202_228" x="0" y="0" width="110" height="110" filterUnits="userSpaceOnUse" color-interpolation-filters="sRGB">
<feFlood flood-opacity="0" result="BackgroundImageFix"/>
<feColorMatrix in="SourceAlpha" type="matrix" values="0 0 0 0 0 0 0 0 0 0 0 0 0 0 0 0 0 0 127 0" result="hardAlpha"/>
<feOffset dx="10" dy="10"/>
<feGaussianBlur stdDeviation="20"/>
<feComposite in2="hardAlpha" operator="out"/>
<feColorMatrix type="matrix" values="0 0 0 0 0 0 0 0 0 0 0 0 0 0 0 0 0 0 0.25 0"/>
<feBlend mode="normal" in2="BackgroundImageFix" result="effect1_dropShadow_202_228"/>
<feBlend mode="normal" in="SourceGraphic" in2="effect1_dropShadow_202_228" result="shape"/>
</filter>
<linearGradient id="paint0_linear_202_228" x1="38" y1="32" x2="54.5" y2="55.5" gradientUnits="userSpaceOnUse">
<stop stop-color="#FFD058"/>
<stop offset="0.677083" stop-color="#FFA381"/>
<stop offset="1" stop-color="#FF7676"/>
</linearGradient>
</defs>
</svg>
