<svg width="123" height="107" viewBox="0 0 123 107" fill="none" xmlns="http://www.w3.org/2000/svg">
<g filter="url(#filter0_d_202_387)">
<circle cx="51.8227" cy="51.1782" r="21.1782" fill="url(#paint0_linear_202_387)"/>
<circle cx="51.8227" cy="51.1782" r="20.6782" stroke="#CC9E58"/>
</g>
<path d="M52.0364 37.9418C53.0611 37.9418 56.4769 38.2407 58.0995 41.8274C58.6545 43.0229 58.4411 45.2005 58.3984 46.9084C58.3557 47.2073 58.3557 47.4635 58.3557 47.7624V47.8905L58.3984 47.9332C58.4411 47.9759 58.6972 48.2748 59.295 48.2748C59.722 48.2321 60.149 48.1467 60.6614 47.9332C60.7041 47.8905 60.8321 47.8905 60.9602 47.8905C61.0883 47.8905 61.2164 47.9332 61.3018 47.9332C61.558 47.9759 61.7715 48.1894 61.7715 48.3602C61.7715 48.4029 61.7288 48.7871 60.7467 49.1287C60.7041 49.1714 60.576 49.1714 60.4052 49.2568C59.8074 49.4276 58.9107 49.7265 58.6118 50.4524C58.4411 50.8793 58.4838 51.349 58.7399 51.8187C58.868 52.0749 60.576 55.9604 64.4188 56.5582C64.4188 56.6009 64.4188 56.6009 64.3761 56.6009C64.3334 56.7717 63.9064 57.3267 61.3018 57.6683C60.8748 57.711 60.8321 58.2234 60.7041 58.7358C60.6614 58.9066 60.6614 59.0774 60.576 59.3335C60.5333 59.3762 60.5333 59.3762 60.5333 59.3762H60.4906C60.3625 59.3762 60.1917 59.3335 60.0209 59.3335C59.6793 59.2908 59.1669 59.1628 58.5265 59.1628C58.1849 59.1628 57.8006 59.2055 57.3736 59.2055C56.605 59.3335 55.9219 59.8032 55.2814 60.2729C54.3847 60.9134 53.4454 61.5965 51.9937 61.5965C51.951 61.5965 51.8656 61.5965 51.8229 61.5965H51.7802H51.7375C51.6948 61.5965 51.6948 61.5965 51.6094 61.5965C50.1576 61.5965 49.2183 60.9561 48.3216 60.2729C47.5958 59.8032 46.998 59.3335 46.2294 59.2055C45.8024 59.2055 45.4609 59.2055 45.0339 59.2055C44.3934 59.2055 43.881 59.3335 43.5394 59.3762C43.3687 59.4189 43.1979 59.4189 43.0698 59.4189C43.0271 59.4189 43.0271 59.4189 42.9417 59.3762C42.899 59.2055 42.8136 59.0347 42.8136 58.7785C42.6855 58.2234 42.6428 57.7537 42.2158 57.711C39.6539 57.3694 39.2269 56.7717 39.1416 56.6436C39.1416 56.6009 39.0989 56.6009 39.0989 56.6009C42.9844 55.9604 44.735 52.1176 44.7777 51.8614C45.0766 51.3063 45.0766 50.8366 44.9058 50.4951C44.6069 49.7692 43.6675 49.4703 43.1125 49.2995C42.9844 49.2568 42.8563 49.2568 42.7709 49.1714C42.0023 48.8725 41.7461 48.5736 41.7461 48.3175C41.7888 48.1467 42.1731 47.8478 42.472 47.8478C42.5147 47.8478 42.6001 47.8478 42.6428 47.8905C43.1979 48.1467 43.6675 48.2321 44.0945 48.2321C44.735 48.2321 45.1193 47.9332 45.1193 47.8905L45.162 47.8478V47.7197C45.162 47.4635 45.1193 47.1646 45.1193 46.8657C44.9912 45.1578 44.8631 42.9802 45.4182 41.7847C47.0407 38.1126 50.3711 37.8991 51.4813 37.8991C51.6094 37.8991 52.0364 37.8991 52.0364 37.9418ZM52.0364 37.4295C51.9937 37.4295 51.5667 37.4295 51.5667 37.4295C50.4992 37.4295 46.7845 37.7283 45.0339 41.6139C44.4361 42.9375 44.5642 45.1578 44.6923 46.9511C44.6923 47.1219 44.735 47.4208 44.735 47.5916C44.6923 47.6343 44.4788 47.7197 44.2653 47.7197C43.9237 47.7197 43.5394 47.5916 43.0271 47.3781C42.899 47.3354 42.7709 47.3354 42.6001 47.3354C42.045 47.3354 41.4045 47.677 41.3619 48.2321C41.3192 48.5736 41.4899 49.1714 42.6855 49.5984C42.8136 49.6411 42.9417 49.6411 43.0271 49.7265C43.4968 49.8973 44.2653 50.0681 44.5215 50.6231C44.6496 50.8793 44.5642 51.2209 44.3934 51.6479V51.6906C44.3507 51.8614 42.7282 55.5334 39.1416 56.1312C38.8427 56.1739 38.6719 56.4301 38.6719 56.729C38.6719 56.7717 38.7146 56.8998 38.7146 56.9852C39.0135 57.6256 40.0809 58.0526 42.1731 58.3515C42.2158 58.3942 42.3012 58.7785 42.3439 58.9493C42.3866 59.1201 42.3866 59.3762 42.472 59.547C42.5147 59.7178 42.6428 60.0167 43.1125 60.0167C43.2833 60.0167 43.4541 59.974 43.7102 59.974C44.0518 59.9313 44.5642 59.8032 45.0766 59.8032C45.4182 59.8032 45.717 59.8459 46.1013 59.8459C46.7418 59.974 47.3396 60.3156 48.0227 60.8707C48.9621 61.5111 50.0722 62.237 51.6948 62.237C51.7375 62.237 51.7375 62.237 51.8229 62.237C51.9083 62.237 51.951 62.237 51.9937 62.237C53.6162 62.237 54.6836 61.5111 55.6657 60.8707C56.3062 60.401 56.9039 60.0167 57.5871 59.8459C57.9287 59.8032 58.313 59.8032 58.6118 59.8032C59.1669 59.8032 59.6366 59.8459 59.9782 59.9313C60.2344 59.974 60.4479 59.974 60.576 59.974H60.6187H60.6614C60.9602 59.974 61.2164 59.8032 61.2591 59.5043C61.3018 59.3335 61.3872 59.0774 61.3872 58.9066C61.4299 58.7358 61.5153 58.3515 61.558 58.3088C63.6075 57.9672 64.8031 57.5402 65.0166 56.9425C65.0592 56.8998 65.0592 56.7717 65.0592 56.6863C65.1019 56.3874 64.8885 56.1312 64.5896 56.0885C61.0029 55.4907 59.3804 51.776 59.3377 51.6479C59.1669 51.3063 59.1669 50.922 59.2096 50.6231C59.3804 50.1535 60.2344 49.8973 60.7041 49.7265C60.8321 49.6838 61.0029 49.6838 61.0456 49.5984C61.9423 49.2568 62.3693 48.8298 62.3693 48.3602C62.3693 48.0186 62.0704 47.6343 61.5153 47.4635C61.3445 47.4208 61.1737 47.3354 60.9602 47.3354C60.8321 47.3354 60.6187 47.3781 60.4906 47.4635C60.0636 47.6343 59.6366 47.7624 59.3377 47.8051C59.1669 47.8051 58.9961 47.7624 58.868 47.677C58.868 47.5062 58.9107 47.3354 58.9107 47.1219V47.0792C59.0388 45.2859 59.1669 43.0656 58.5692 41.742C56.8185 37.7283 53.1038 37.4295 52.0364 37.4295Z" fill="black"/>
<defs>
<filter id="filter0_d_202_387" x="0.644531" y="0" width="122.355" height="122.356" filterUnits="userSpaceOnUse" color-interpolation-filters="sRGB">
<feFlood flood-opacity="0" result="BackgroundImageFix"/>
<feColorMatrix in="SourceAlpha" type="matrix" values="0 0 0 0 0 0 0 0 0 0 0 0 0 0 0 0 0 0 127 0" result="hardAlpha"/>
<feOffset dx="10" dy="10"/>
<feGaussianBlur stdDeviation="20"/>
<feComposite in2="hardAlpha" operator="out"/>
<feColorMatrix type="matrix" values="0 0 0 0 0 0 0 0 0 0 0 0 0 0 0 0 0 0 0.25 0"/>
<feBlend mode="normal" in2="BackgroundImageFix" result="effect1_dropShadow_202_387"/>
<feBlend mode="normal" in="SourceGraphic" in2="effect1_dropShadow_202_387" result="shape"/>
</filter>
<linearGradient id="paint0_linear_202_387" x1="41.9396" y1="32.8238" x2="65.2356" y2="66.003" gradientUnits="userSpaceOnUse">
<stop stop-color="#FFD058"/>
<stop offset="0.677083" stop-color="#FFA381"/>
<stop offset="1" stop-color="#FF7676"/>
</linearGradient>
</defs>
</svg>
