<svg width="19" height="22" viewBox="0 0 19 22" fill="none" xmlns="http://www.w3.org/2000/svg">
<path d="M6.97862 20.4829H12.0792C11.5618 21.3933 10.6378 22 9.52888 22C8.42001 22 7.49606 21.393 6.97862 20.4829ZM18.9538 18.6622L17.66 15.7793V10.1276C17.66 6.1829 15.1469 2.8448 11.7094 1.82064C11.5246 0.796426 10.6005 0 9.52882 0C8.4571 0 7.56992 0.796697 7.34822 1.82064C6.09164 2.16197 4.94593 2.84486 3.94787 3.75508C2.32155 5.31034 1.36071 7.54823 1.36071 9.86205V15.7793L0.0669705 18.662C-0.0438907 18.8896 -0.00702357 19.1552 0.103837 19.3828C0.251566 19.6103 0.473546 19.7241 0.73213 19.7241H18.2144C18.4732 19.7241 18.6949 19.6103 18.8427 19.3828C19.0278 19.1552 19.0278 18.8898 18.9538 18.6622Z" fill="#F0FCFF"/>
</svg>
