<svg width="38" height="38" viewBox="0 0 38 38" fill="none" xmlns="http://www.w3.org/2000/svg">
<path fill-rule="evenodd" clip-rule="evenodd" d="M20.8996 1.09735L21.7814 2.62375C22.3851 3.67082 23.7325 4.03139 24.7793 3.42763L26.3057 2.54584C27.0038 2.14335 27.8028 2.14335 28.4997 2.54584C29.1978 2.94834 29.5968 3.64056 29.5968 4.44555V6.20919C29.5968 7.41802 30.5822 8.40319 31.7908 8.40319H33.5544C34.3605 8.40319 35.0516 8.80217 35.4542 9.50033C35.8566 10.1985 35.8566 10.9964 35.4542 11.6943L34.5724 13.2207C33.9686 14.2678 34.3292 15.6138 35.3762 16.2186L36.9026 17.1004C37.6008 17.5029 37.9998 18.1951 37.9998 19.0001C37.9998 19.8062 37.6008 20.4973 36.9026 20.8998L35.3762 21.7816C34.3292 22.3853 33.9686 23.7327 34.5724 24.7795L35.4542 26.3059C35.8566 27.004 35.8566 27.8031 35.4542 28.4999C35.0517 29.198 34.3594 29.597 33.5544 29.597H31.7908C30.582 29.597 29.5968 30.5824 29.5968 31.791V33.5547C29.5968 34.3608 29.1978 35.0518 28.4997 35.4544C27.8015 35.8569 27.0036 35.8569 26.3057 35.4544L24.7793 34.5726C23.7322 33.9688 22.3862 34.3294 21.7814 35.3765L20.8996 36.9029C20.4971 37.601 19.8049 38 18.9999 38C18.1938 38 17.5027 37.601 17.1002 36.9029L16.2184 35.3765C15.6147 34.3294 14.2673 33.9688 13.2205 34.5726L11.6941 35.4544C10.996 35.8569 10.1969 35.8569 9.50012 35.4544C8.80198 35.0519 8.40298 34.3596 8.40298 33.5547V31.791C8.40298 30.5822 7.4176 29.597 6.20898 29.597H4.44534C3.63924 29.597 2.94817 29.198 2.54564 28.4999C2.14314 27.8017 2.14314 27.0038 2.54564 26.3059L3.42742 24.7795C4.03116 23.7324 3.67059 22.3864 2.62354 21.7816L1.09714 20.8998C0.398998 20.4973 0 19.8051 0 19.0001C0 18.194 0.398977 17.5029 1.09714 17.1004L2.62354 16.2186C3.67061 15.6149 4.03118 14.2675 3.42742 13.2207L2.54564 11.6943C2.14314 10.9962 2.14314 10.1972 2.54564 9.50033C2.94813 8.80219 3.64035 8.40319 4.44534 8.40319H6.20898C7.41781 8.40319 8.40298 7.41781 8.40298 6.20919V4.44666C8.40298 3.64056 8.80196 2.94948 9.50012 2.54564C10.1983 2.14314 10.9962 2.14314 11.6941 2.54564L13.2205 3.42742C14.2676 4.03117 15.6136 3.67059 16.2184 2.62354L17.1002 1.09714C17.5027 0.398998 18.1949 0 18.9999 0C19.806 0 20.4971 0.398977 20.8996 1.09714V1.09735ZM21.2231 14.5305H28.0904C28.8337 14.5305 29.441 15.1377 29.441 15.8799C29.441 16.6232 28.8337 17.2305 28.0904 17.2305H27.5786C28.3219 17.2305 28.9292 17.8378 28.9292 18.5811C28.9292 19.3244 28.322 19.9317 27.5786 19.9317H27.0669C27.8091 19.9317 28.4175 20.5389 28.4175 21.2823C28.4175 22.0245 27.8102 22.6328 27.0669 22.6328H26.5551C27.2973 22.6328 27.9057 23.2401 27.9057 23.9834C27.9057 24.7257 27.2984 25.334 26.5551 25.334H17.6389L15.0923 24.8861V13.8787L18.2438 11.3203V7.31728H18.8951C20.1773 7.31728 21.223 8.36304 21.223 9.64514V14.5335L21.2231 14.5305ZM13.1912 14.0303H8.55878V25.9719H13.1912V14.0303Z" fill="#005764"/>
</svg>
