<svg width="18" height="18" viewBox="0 0 18 18" fill="none" xmlns="http://www.w3.org/2000/svg">
<path d="M0 11H18V7H0V11ZM6.81486 8.54898H11.1858C11.5336 8.54898 11.8157 8.751 11.8157 9.00008C11.8157 9.24917 11.5336 9.45119 11.1858 9.45119H6.81486C6.46708 9.45119 6.18497 9.24917 6.18497 9.00008C6.18497 8.751 6.46705 8.54898 6.81486 8.54898Z" fill="#F0FCFF"/>
<path d="M16.7409 0H1.25972C0.565102 0 0 0.404689 0 0.902174V4H18V0.902174C18.0002 0.404545 17.4349 0 16.7405 0H16.7409ZM11.1859 2.45102H6.81497C6.4672 2.45102 6.18509 2.249 6.18509 1.99992C6.18509 1.75085 6.46717 1.54881 6.81497 1.54881H11.1859C11.5337 1.54881 11.8158 1.75083 11.8158 1.99992C11.8158 2.24898 11.5338 2.45102 11.1859 2.45102Z" fill="#F0FCFF"/>
<path d="M0 17.1222C0 17.6062 0.565073 18 1.25972 18H16.7403C17.4349 18 18 17.6062 18 17.1222V14H0V17.1222ZM6.81486 15.5072H11.1858C11.5336 15.5072 11.8157 15.7038 11.8157 15.9462C11.8157 16.1885 11.5336 16.3851 11.1858 16.3851H6.81486C6.46708 16.3851 6.18497 16.1886 6.18497 15.9462C6.18497 15.7037 6.46705 15.5072 6.81486 15.5072Z" fill="#F0FCFF"/>
</svg>
