<svg width="16" height="23" viewBox="0 0 16 23" fill="none" xmlns="http://www.w3.org/2000/svg">
<path d="M9.62804 15.0625C9.30327 15.6271 8.69629 16.0037 7.99985 16.0037C7.30341 16.0037 6.69641 15.6274 6.37166 15.0625H9.62804Z" fill="#007FA7"/>
<path d="M7.99996 0C12.4093 0 16 3.59062 16 8.00004V8.0095V8.01422C16 8.03766 15.9858 8.0613 15.9811 8.08473C15.9764 8.12235 15.9716 8.15997 15.9577 8.19305C15.9482 8.21196 15.9295 8.23067 15.92 8.24958C15.8966 8.28247 15.8777 8.31555 15.8495 8.34372C15.8448 8.34372 15.8448 8.35317 15.8401 8.35317L9.81194 13.6331C9.85408 13.7881 9.88225 13.9482 9.88225 14.1176C9.88225 14.4611 9.7881 14.7811 9.62818 15.0588H6.37179C6.21187 14.7811 6.11772 14.4611 6.11772 14.1176C6.11772 13.9482 6.14589 13.7881 6.18823 13.6329L0.160089 8.35298C0.155362 8.35298 0.155362 8.34352 0.150636 8.34352C0.122472 8.31536 0.103566 8.28227 0.0801306 8.24938C0.0706768 8.23047 0.0519667 8.21176 0.0425129 8.19285C0.0283327 8.15996 0.0236053 8.12235 0.0190754 8.08453C0.014349 8.0611 0.0001688 8.03746 0.0001688 8.01403V8.0093V7.99985C-2.86102e-05 3.59072 3.59058 0.000307543 7.99971 0.000307543L7.99996 0ZM14.8187 7.995C13.9105 7.28913 13.0682 7.38326 12.1412 8.28669L9.79766 12.3902L14.8187 7.995ZM8.47037 12.3007C8.55506 12.3242 8.63975 12.3478 8.71971 12.3807L11.1668 8.09836C10.2445 7.31726 9.3974 7.34539 8.47038 8.20195L8.47037 12.3007ZM7.27982 12.3807C7.35978 12.3478 7.44447 12.3242 7.52916 12.3007V8.21145C6.60209 7.35493 5.755 7.31731 4.83273 8.0986L7.27982 12.3807ZM6.2023 12.3901L3.8635 8.29613C2.93644 7.38797 2.08934 7.28441 1.18124 7.99499L6.2023 12.3901Z" fill="#007FA7"/>
<path d="M2.35273 15.0625H13.6467C13.9055 15.0625 14.1172 15.2742 14.1172 15.533V22.1213C14.1172 22.3801 13.9055 22.5918 13.6467 22.5918H2.35273C2.09394 22.5918 1.88222 22.3801 1.88222 22.1213V15.533C1.88222 15.2742 2.09394 15.0625 2.35273 15.0625ZM6.58796 19.2977H7.52919V20.239C7.52919 20.4977 7.74091 20.7095 7.9997 20.7095C8.2585 20.7095 8.47022 20.4977 8.47022 20.239V19.2977H9.41145C9.67024 19.2977 9.88196 19.086 9.88196 18.8272C9.88196 18.5684 9.67024 18.3567 9.41145 18.3567H8.47022V17.4155C8.47022 17.1567 8.2585 16.945 7.9997 16.945C7.74091 16.945 7.52919 17.1567 7.52919 17.4155V18.3567H6.58796C6.32917 18.3567 6.11745 18.5684 6.11745 18.8272C6.11745 19.0858 6.32917 19.2977 6.58796 19.2977Z" fill="#007FA7"/>
</svg>
