<svg width="25" height="25" viewBox="0 0 25 25" fill="none" xmlns="http://www.w3.org/2000/svg">
<path d="M18.5273 0.000117137C18.3068 0.00406836 18.0967 0.0938163 17.9417 0.250359L15.3015 2.88451L22.1107 9.68375L24.7544 7.04454C24.9115 6.88668 24.9997 6.67294 24.9997 6.45035C24.9997 6.22758 24.9115 6.01384 24.7544 5.85597C23.6855 2.3483 21.7194 1.77122 19.1373 0.25031C18.9764 0.0877472 18.7562 -0.00251759 18.5273 0.000117137ZM14.1076 4.07643C9.73138 9.37934 6.60743 12.1297 1.11296 17.0497C0.957469 17.2074 0.8704 17.4196 0.8704 17.6407L0.845711 23.2729C0.844768 23.4975 0.933913 23.7133 1.09298 23.8721C1.25224 24.0311 1.46822 24.1199 1.69343 24.1192L7.33313 24.0943C7.55571 24.0924 7.7683 24.0031 7.92509 23.8456C12.5841 17.8373 15.7872 15.1762 20.9183 10.8742L14.1076 4.07643Z" fill="#005764"/>
</svg>
