<svg width="28" height="28" viewBox="0 0 28 28" fill="none" xmlns="http://www.w3.org/2000/svg">
<path d="M0.901686 7.98265e-05C0.671116 0.00105424 0.450104 0.0930412 0.28701 0.255964C0.124129 0.418693 0.0320552 0.639499 0.0310815 0.869869V10.3696C0.0320568 10.5999 0.124129 10.8205 0.28701 10.9835C0.450084 11.1464 0.671096 11.2384 0.901686 11.2393H10.4037C10.6355 11.2401 10.858 11.1491 11.0227 10.986C11.1871 10.8229 11.2802 10.6011 11.281 10.3696V0.869909C11.2802 0.638387 11.1871 0.416607 11.0227 0.25351C10.8581 0.090392 10.6355 -0.000623631 10.4037 0.000159653L0.901686 7.98265e-05ZM13.9982 7.98265e-05H13.998C13.7672 0.00417241 13.5474 0.0994721 13.3865 0.26493C13.2256 0.430387 13.1368 0.65275 13.1395 0.883475V11.2533C13.1177 11.4973 13.1994 11.7395 13.365 11.9203C13.5306 12.1014 13.7647 12.2045 14.0101 12.2045C14.2555 12.2045 14.4896 12.1014 14.655 11.9203C14.8206 11.7395 14.9025 11.4972 14.8805 11.2533V0.883475C14.8832 0.648639 14.7912 0.422569 14.6252 0.256348C14.4592 0.0903072 14.2331 -0.00207046 13.998 7.48366e-05L13.9982 7.98265e-05ZM17.6167 7.98265e-05H17.6165C17.3848 -0.000699716 17.1622 0.0903122 16.9977 0.25343C16.8331 0.416548 16.7403 0.638327 16.7393 0.86983V10.3695C16.7403 10.601 16.8331 10.8228 16.9977 10.9859C17.1622 11.149 17.3848 11.2401 17.6165 11.2393H27.1186C27.3491 11.2383 27.5699 11.1463 27.733 10.9834C27.8961 10.8205 27.988 10.5998 27.989 10.3695V0.86979C27.988 0.639434 27.8961 0.418628 27.733 0.255884C27.57 0.0929614 27.3491 0.000972869 27.1186 0L17.6167 7.98265e-05ZM0.81085 13.0964C0.503622 13.1192 0.23073 13.3016 0.0928038 13.5768C-0.0453024 13.852 -0.0283337 14.1794 0.137474 14.4389C0.303086 14.6985 0.593346 14.8517 0.901363 14.8425H11.2803C11.5156 14.8478 11.7428 14.7582 11.911 14.5939C12.0791 14.4296 12.1739 14.2045 12.1739 13.9694C12.1739 13.7346 12.0791 13.5095 11.911 13.3452C11.7428 13.1809 11.5156 13.0913 11.2803 13.0963H0.901363C0.871128 13.0948 0.840894 13.0948 0.810852 13.0963L0.81085 13.0964ZM21.7195 13.0964C21.4123 13.1192 21.1396 13.3016 21.0015 13.5768C20.8634 13.852 20.8804 14.1794 21.0462 14.4389C21.212 14.6985 21.502 14.8517 21.8101 14.8425H27.1064C27.3416 14.8478 27.5689 14.7582 27.7371 14.5939C27.9052 14.4296 28 14.2045 28 13.9694C28 13.7346 27.9052 13.5095 27.7371 13.3452C27.5689 13.1809 27.3416 13.0913 27.1064 13.0963H21.8101C21.78 13.0948 21.7498 13.0948 21.7195 13.0963L21.7195 13.0964ZM13.9978 15.7959C13.7658 15.7998 13.5448 15.8961 13.3837 16.0629C13.2228 16.2299 13.1348 16.4541 13.1393 16.686V18.9215C13.1174 19.1657 13.1992 19.4079 13.3648 19.5888C13.5304 19.7698 13.7645 19.8727 14.0099 19.8727C14.2552 19.8727 14.4893 19.7698 14.6547 19.5888C14.8204 19.4079 14.9023 19.1657 14.8802 18.9215V16.686C14.8849 16.4499 14.7936 16.2221 14.6274 16.0545C14.4612 15.8867 14.234 15.7936 13.9978 15.7959H13.9978ZM17.6094 16.686C17.3757 16.6866 17.152 16.7799 16.9873 16.9458C16.8227 17.1114 16.7308 17.3359 16.7322 17.5694V22.3135V22.3133C16.7328 22.5456 16.8252 22.7682 16.9897 22.9324C17.1541 23.0967 17.3769 23.1893 17.6094 23.1899H21.4805V27.0556C21.4794 27.2903 21.572 27.5158 21.7382 27.6816C21.9042 27.8476 22.1299 27.9402 22.3648 27.9389H27.1116C27.3453 27.9385 27.569 27.8449 27.7336 27.6793C27.8983 27.5134 27.9901 27.2891 27.9888 27.0556V22.3133C27.9888 22.0808 27.8963 21.8576 27.7319 21.6929C27.5674 21.5282 27.3443 21.4357 27.1116 21.4351H23.242V17.5694C23.2434 17.3359 23.1515 17.1114 22.9869 16.9457C22.8224 16.7799 22.5985 16.6865 22.3648 16.6859L17.6094 16.686ZM0.814046 16.6979C0.813071 16.6985 0.811901 16.699 0.81073 16.6996C0.596155 16.7228 0.397775 16.8245 0.253831 16.9851C0.109872 17.1455 0.0302824 17.3537 0.0306719 17.5694V27.0626C0.0298916 27.2941 0.120988 27.5165 0.284258 27.681C0.447527 27.8453 0.669513 27.9382 0.901232 27.939H10.4033C10.6362 27.94 10.8599 27.848 11.0245 27.6833C11.1894 27.5189 11.2814 27.2953 11.2805 27.0626V17.5694C11.2797 17.3377 11.1866 17.1161 11.0222 16.953C10.8576 16.7899 10.635 16.6989 10.4032 16.6997H0.901187C0.872122 16.6977 0.843055 16.6972 0.813991 16.6979L0.814046 16.6979ZM13.9975 20.5977V20.5979C13.7655 20.6018 13.5445 20.6981 13.3834 20.8649C13.2225 21.0319 13.1345 21.256 13.139 21.4879V27.0488C13.1171 27.293 13.1989 27.535 13.3645 27.7161C13.5301 27.8969 13.7642 28 14.0096 28C14.2549 28 14.489 27.8969 14.6544 27.7161C14.8201 27.535 14.902 27.293 14.8799 27.0488V21.4879C14.8846 21.2519 14.7933 21.0241 14.6271 20.8565C14.4609 20.6887 14.2337 20.5956 13.9975 20.5979L13.9975 20.5977Z" fill="#C8F8FF"/>
</svg>
