<svg width="158" height="154" viewBox="0 0 158 154" fill="none" xmlns="http://www.w3.org/2000/svg">
<g filter="url(#filter0_d_263_34)">
<g filter="url(#filter1_d_263_34)">
<circle cx="69" cy="69" r="39" fill="url(#paint0_linear_263_34)"/>
<circle cx="69" cy="69" r="37.5" stroke="#AA9CFF" stroke-width="3"/>
</g>
<path d="M72.6001 53.5499C72.6001 53.1389 72.7633 52.7445 73.054 52.4538C73.3446 52.1632 73.739 52 74.15 52H80.35C81.5833 52 82.7661 52.4899 83.6382 53.3618C84.5101 54.2339 85 55.4167 85 56.65V62.8499C85 63.4037 84.7047 63.9154 84.2252 64.1922C83.7456 64.4691 83.1545 64.4691 82.675 64.1922C82.1954 63.9154 81.9002 63.4037 81.9002 62.8499V56.65C81.9002 56.2387 81.7367 55.8446 81.4461 55.5539C81.1554 55.2633 80.7612 55.0998 80.35 55.0998H74.15C73.739 55.0998 73.3446 54.9366 73.054 54.646C72.7633 54.3554 72.6001 53.961 72.6001 53.5499L72.6001 53.5499ZM83.4499 70.6002C83.0389 70.6002 82.6445 70.7634 82.3539 71.054C82.0632 71.3446 81.9 71.739 81.9 72.1501V78.35C81.9 78.7613 81.7366 79.1554 81.4459 79.4461C81.1553 79.7367 80.7611 79.9002 80.3498 79.9002H74.1499C73.5962 79.9002 73.0844 80.1955 72.8076 80.675C72.5307 81.1545 72.5307 81.7456 72.8076 82.2252C73.0844 82.7047 73.5961 83 74.1499 83H80.3498C81.5832 83 82.7659 82.5101 83.6381 81.6382C84.51 80.7661 84.9999 79.5833 84.9999 78.35V72.1501C84.9999 71.739 84.8367 71.3446 84.546 71.054C84.2554 70.7634 83.861 70.6001 83.45 70.6001L83.4499 70.6002ZM78.7999 73.7V61.2997V61.3C78.7999 60.4777 78.4732 59.6894 77.892 59.1079C77.3105 58.5266 76.5221 58.1999 75.6998 58.1999H63.2995H63.2998C62.4775 58.1999 61.6891 58.5266 61.1076 59.1079C60.5264 59.6894 60.1997 60.4777 60.1997 61.3V73.6996C60.1997 74.5219 60.5264 75.3102 61.1076 75.8917C61.6891 76.473 62.4775 76.7997 63.2998 76.7997H75.6994C76.5217 76.7997 77.31 76.473 77.8916 75.8917C78.4728 75.3102 78.7995 74.5219 78.7995 73.6996L78.7999 73.7ZM58.65 83H64.85C65.4037 83 65.9154 82.7047 66.1923 82.2252C66.4692 81.7456 66.4692 81.1545 66.1923 80.675C65.9154 80.1954 65.4037 79.9002 64.85 79.9002H58.65C58.2387 79.9002 57.8446 79.7367 57.554 79.4461C57.2633 79.1554 57.0999 78.7613 57.0999 78.35V72.1501C57.0999 71.5963 56.8046 71.0846 56.325 70.8078C55.8455 70.5309 55.2544 70.5309 54.7748 70.8078C54.2953 71.0846 54 71.5963 54 72.1501V78.35C54 79.5833 54.4899 80.7661 55.3618 81.6382C56.234 82.5101 57.4167 83 58.65 83L58.65 83ZM55.5499 64.4C55.961 64.4 56.3554 64.2368 56.646 63.9461C56.9366 63.6555 57.0998 63.2611 57.0998 62.8501V56.6501C57.0998 56.2389 57.2633 55.8447 57.5539 55.5541C57.8446 55.2634 58.2388 55.1 58.65 55.1H64.85C65.4037 55.1 65.9154 54.8047 66.1923 54.3251C66.4692 53.8456 66.4692 53.2545 66.1923 52.775C65.9154 52.2954 65.4037 52.0001 64.85 52.0001H58.65C57.4167 52.0001 56.2339 52.49 55.3618 53.3619C54.4899 54.2341 54 55.4168 54 56.6501V62.8501C54 63.2611 54.1632 63.6555 54.4538 63.9461C54.7445 64.2368 55.1389 64.4 55.5499 64.4L55.5499 64.4Z" fill="white" fill-opacity="0.96"/>
</g>
<defs>
<filter id="filter0_d_263_34" x="26" y="30" width="86" height="86" filterUnits="userSpaceOnUse" color-interpolation-filters="sRGB">
<feFlood flood-opacity="0" result="BackgroundImageFix"/>
<feColorMatrix in="SourceAlpha" type="matrix" values="0 0 0 0 0 0 0 0 0 0 0 0 0 0 0 0 0 0 127 0" result="hardAlpha"/>
<feOffset dy="4"/>
<feGaussianBlur stdDeviation="2"/>
<feComposite in2="hardAlpha" operator="out"/>
<feColorMatrix type="matrix" values="0 0 0 0 0 0 0 0 0 0 0 0 0 0 0 0 0 0 0.25 0"/>
<feBlend mode="normal" in2="BackgroundImageFix" result="effect1_dropShadow_263_34"/>
<feBlend mode="normal" in="SourceGraphic" in2="effect1_dropShadow_263_34" result="shape"/>
</filter>
<filter id="filter1_d_263_34" x="0" y="0" width="158" height="158" filterUnits="userSpaceOnUse" color-interpolation-filters="sRGB">
<feFlood flood-opacity="0" result="BackgroundImageFix"/>
<feColorMatrix in="SourceAlpha" type="matrix" values="0 0 0 0 0 0 0 0 0 0 0 0 0 0 0 0 0 0 127 0" result="hardAlpha"/>
<feOffset dx="10" dy="10"/>
<feGaussianBlur stdDeviation="20"/>
<feComposite in2="hardAlpha" operator="out"/>
<feColorMatrix type="matrix" values="0 0 0 0 0 0 0 0 0 0 0 0 0 0 0 0 0 0 0.25 0"/>
<feBlend mode="normal" in2="BackgroundImageFix" result="effect1_dropShadow_263_34"/>
<feBlend mode="normal" in="SourceGraphic" in2="effect1_dropShadow_263_34" result="shape"/>
</filter>
<linearGradient id="paint0_linear_263_34" x1="46.8409" y1="35.3182" x2="81.4091" y2="101.352" gradientUnits="userSpaceOnUse">
<stop stop-color="#FF6993"/>
<stop offset="0.682292" stop-color="#CD4CD5"/>
<stop offset="1" stop-color="#9748BA"/>
</linearGradient>
</defs>
</svg>
