<svg width="21" height="21" viewBox="0 0 21 21" fill="none" xmlns="http://www.w3.org/2000/svg">
<path d="M20.0818 20.0821C19.9947 20.1748 19.873 20.2276 19.7458 20.2276C19.6186 20.2276 18.5871 20.1748 18.5 20.0821L14.3221 13.6498C12.7287 15.0681 9.97295 16.482 7.84179 16.3893C5.71063 16.2965 3.69956 15.3768 2.23565 13.8252C0.77165 12.2738 -0.0300794 10.2126 0.000863495 8.07978C0.0318346 5.94678 0.892806 3.90974 2.40121 2.40121C3.90956 0.892851 5.94665 0.0318508 8.07978 0.000865061C10.2126 -0.0301061 12.2737 0.771608 13.8252 2.23565C15.3768 3.69965 16.2965 5.71076 16.3893 7.84179C16.482 9.97295 15.7404 12.0564 14.3221 13.6498L20.0818 18.5C20.1745 18.5871 20.2276 19.6186 20.2276 19.7458C20.2276 19.873 20.1745 19.995 20.0818 20.0821Z" fill="#F0FCFF"/>
</svg>
