<svg width="27" height="27" viewBox="0 0 27 27" fill="none" xmlns="http://www.w3.org/2000/svg">
<path d="M22.4981 18.3963C21.0065 18.3963 19.7636 19.2664 19.0178 20.385L11.3112 16.5318C11.9327 15.5374 12.3056 14.4187 12.3056 13.3C12.3056 12.1813 11.9327 10.9383 11.3112 10.0682L19.0178 6.21495C19.7636 7.45794 21.0065 8.20374 22.4981 8.20374C24.7355 8.20374 26.6 6.33925 26.6 4.10187C26.6 1.86449 24.7355 0 22.4981 0C20.2607 0 18.3963 1.86449 18.3963 4.10187C18.3963 4.47477 18.3963 4.72336 18.5206 5.09626L10.5654 9.07383C9.44673 7.95514 7.83084 7.20935 6.09065 7.20935C2.73458 7.20935 0 9.94393 0 13.3C0 16.6561 2.73458 19.3907 6.09065 19.3907C7.83084 19.3907 9.44673 18.6449 10.5654 17.5262L18.5206 21.5037C18.3963 21.7523 18.3963 22.1252 18.3963 22.4981C18.3963 24.7355 20.2607 26.6 22.4981 26.6C24.7355 26.6 26.6 24.7355 26.6 22.4981C26.6 20.1364 24.7355 18.3963 22.4981 18.3963Z" fill="#005764"/>
</svg>
