<svg width="158" height="158" viewBox="0 0 158 158" fill="none" xmlns="http://www.w3.org/2000/svg">
<g filter="url(#filter0_d_214_114)">
<circle cx="69" cy="69" r="37.5" fill="url(#paint0_linear_214_114)" stroke="#AA9CFF" stroke-width="3"/>
<path d="M52.9361 71.858C52.9361 71.41 52.8288 71.0273 52.6141 70.71C52.4088 70.3927 52.1381 70.1453 51.8021 69.968C51.4754 69.7907 51.1114 69.632 50.7101 69.492C50.3088 69.352 49.9074 69.212 49.5061 69.072C49.1048 68.9227 48.7361 68.75 48.4001 68.554C48.0734 68.3487 47.8028 68.0687 47.5881 67.714C47.3828 67.3593 47.2801 66.93 47.2801 66.426C47.2801 65.558 47.5974 64.8767 48.2321 64.382C48.8761 63.8873 49.6974 63.64 50.6961 63.64C51.7041 63.64 52.5068 63.8687 53.1041 64.326C53.7014 64.7833 54.0001 65.2827 54.0001 65.824C54.0001 66.1973 53.9254 66.4773 53.7761 66.664C53.6361 66.8413 53.4681 66.93 53.2721 66.93C52.9081 66.93 52.6748 66.86 52.5721 66.72L52.5301 66.65C52.6234 66.5287 52.6701 66.2953 52.6701 65.95C52.6701 65.418 52.4461 65.0027 51.9981 64.704C51.5501 64.396 51.0274 64.242 50.4301 64.242C49.8421 64.242 49.3754 64.4007 49.0301 64.718C48.6848 65.0353 48.5121 65.4227 48.5121 65.88C48.5121 66.3373 48.6148 66.72 48.8201 67.028C49.0348 67.3267 49.3101 67.56 49.6461 67.728C49.9821 67.896 50.3508 68.0453 50.7521 68.176C51.1628 68.3067 51.5688 68.4513 51.9701 68.61C52.3808 68.7593 52.7541 68.946 53.0901 69.17C53.4261 69.3847 53.6968 69.6927 53.9021 70.094C54.1168 70.4953 54.2241 70.9807 54.2241 71.55C54.2241 72.5487 53.8694 73.314 53.1601 73.846C52.4508 74.378 51.5594 74.644 50.4861 74.644C49.4221 74.644 48.4934 74.3733 47.7001 73.832C46.9161 73.2813 46.5241 72.5953 46.5241 71.774C46.5241 71.3913 46.5988 71.0927 46.7481 70.878C46.8974 70.654 47.0748 70.542 47.2801 70.542C47.6441 70.542 47.8774 70.6027 47.9801 70.724L48.0221 70.794C47.9381 71.0273 47.8961 71.312 47.8961 71.648C47.8961 72.2827 48.1528 72.838 48.6661 73.314C49.1888 73.79 49.8701 74.028 50.7101 74.028C51.3168 74.028 51.8394 73.818 52.2781 73.398C52.7168 72.9687 52.9361 72.4553 52.9361 71.858ZM54.8929 66.3C54.7343 66.1413 54.6549 65.9453 54.6549 65.712C54.6549 65.4787 54.7343 65.2827 54.8929 65.124C55.0516 64.956 55.2476 64.872 55.4809 64.872C55.7143 64.872 55.9103 64.956 56.0689 65.124C56.2369 65.2827 56.3209 65.4787 56.3209 65.712C56.3209 65.9453 56.2369 66.1413 56.0689 66.3C55.9103 66.4587 55.7143 66.538 55.4809 66.538C55.2476 66.538 55.0516 66.4587 54.8929 66.3ZM54.8369 68.526C54.8369 68.246 54.9069 68.036 55.0469 67.896C55.1869 67.7467 55.3643 67.672 55.5789 67.672C55.7936 67.672 55.9663 67.7373 56.0969 67.868V71.886C56.0969 72.418 56.1996 72.8193 56.4049 73.09C56.6103 73.3607 56.8903 73.496 57.2449 73.496C57.5996 73.496 57.9309 73.2813 58.2389 72.852C58.5469 72.4227 58.7009 71.7273 58.7009 70.766C58.7196 70.71 58.7896 70.682 58.9109 70.682C59.0789 70.682 59.1629 70.9293 59.1629 71.424C59.1629 72.1427 58.9669 72.7587 58.5749 73.272C58.1829 73.7853 57.6836 74.042 57.0769 74.042C56.3209 74.042 55.7563 73.818 55.3829 73.37C55.0189 72.922 54.8369 72.2873 54.8369 71.466V68.526ZM62.9044 68.078C63.0258 67.8073 63.2171 67.672 63.4784 67.672C63.7491 67.672 63.9498 67.7373 64.0804 67.868V74.98C64.1924 74.9707 64.3698 74.966 64.6124 74.966C64.8551 74.966 64.9764 75.0687 64.9764 75.274L64.8924 75.484C64.5378 75.484 64.2671 75.4887 64.0804 75.498V76.226C64.0711 77.1873 63.8471 77.9387 63.4084 78.48C62.9791 79.0307 62.4051 79.306 61.6864 79.306C61.2571 79.306 60.8744 79.1753 60.5384 78.914C60.2118 78.662 60.0484 78.2607 60.0484 77.71C60.0484 77.0007 60.3004 76.436 60.8044 76.016C61.3084 75.596 61.9804 75.302 62.8204 75.134V73.076C62.4284 73.72 61.8871 74.042 61.1964 74.042C59.5631 74.042 58.7464 72.9733 58.7464 70.836C58.7464 69.7533 58.9984 68.9553 59.5024 68.442C60.0158 67.9287 60.6924 67.672 61.5324 67.672C62.1764 67.672 62.6338 67.8073 62.9044 68.078ZM62.8204 71.074V70.08C62.8204 69.4173 62.7084 68.9413 62.4844 68.652C62.2604 68.3627 61.9991 68.218 61.7004 68.218C61.4111 68.218 61.1824 68.246 61.0144 68.302C60.8464 68.358 60.6831 68.4747 60.5244 68.652C60.2258 68.988 60.0764 69.716 60.0764 70.836C60.0764 71.5733 60.1418 72.1473 60.2724 72.558C60.4031 72.9687 60.5524 73.23 60.7204 73.342C60.8884 73.4447 61.1218 73.496 61.4204 73.496C61.7284 73.496 62.0364 73.3047 62.3444 72.922C62.6618 72.53 62.8204 71.914 62.8204 71.074ZM62.8204 76.198V75.666C61.4484 75.974 60.7624 76.6693 60.7624 77.752C60.7624 78.0787 60.8511 78.326 61.0284 78.494C61.2058 78.6713 61.4158 78.76 61.6584 78.76C62.0504 78.76 62.3398 78.578 62.5264 78.214C62.7224 77.85 62.8204 77.178 62.8204 76.198ZM72.9783 70.682C73.1463 70.682 73.2303 70.9293 73.2303 71.424C73.2303 72.2173 73.0576 72.852 72.7123 73.328C72.3763 73.804 71.8816 74.042 71.2283 74.042C70.575 74.042 70.071 73.818 69.7163 73.37C69.371 72.922 69.1983 72.2873 69.1983 71.466V69.828C69.1983 68.7173 68.9183 68.162 68.3583 68.162C67.8636 68.162 67.4576 68.414 67.1403 68.918C66.823 69.422 66.6643 70.2667 66.6643 71.452V73.846C66.571 73.9767 66.4076 74.042 66.1743 74.042C65.941 74.042 65.7543 73.972 65.6143 73.832C65.4743 73.6827 65.4043 73.468 65.4043 73.188V67.868C65.4976 67.7373 65.675 67.672 65.9363 67.672C66.4216 67.672 66.6643 68.022 66.6643 68.722C67.0563 68.022 67.677 67.672 68.5263 67.672C69.133 67.672 69.6136 67.8633 69.9683 68.246C70.3323 68.6287 70.5143 69.1793 70.5143 69.898V71.886C70.5143 72.418 70.5983 72.8193 70.7663 73.09C70.9343 73.3607 71.1816 73.496 71.5083 73.496C71.8443 73.496 72.1383 73.2907 72.3903 72.88C72.6423 72.46 72.7683 71.7553 72.7683 70.766C72.7776 70.71 72.8476 70.682 72.9783 70.682ZM82.748 73.398C82.8413 73.4727 82.888 73.5707 82.888 73.692C82.888 73.8133 82.846 73.916 82.762 74H78.996C78.66 74 78.492 73.8647 78.492 73.594C78.492 73.4727 78.534 73.37 78.618 73.286L80.13 73.272V64.928H78.996C78.66 64.928 78.492 64.7927 78.492 64.522C78.492 64.41 78.534 64.3027 78.618 64.2H82.384C82.5427 64.2 82.664 64.242 82.748 64.326C82.8413 64.4007 82.888 64.4987 82.888 64.62C82.888 64.7413 82.846 64.844 82.762 64.928H81.39V73.272H82.384C82.5427 73.272 82.664 73.314 82.748 73.398ZM91.6814 70.682C91.8494 70.682 91.9334 70.9293 91.9334 71.424C91.9334 72.2173 91.7608 72.852 91.4154 73.328C91.0794 73.804 90.5848 74.042 89.9314 74.042C89.2781 74.042 88.7741 73.818 88.4194 73.37C88.0741 72.922 87.9014 72.2873 87.9014 71.466V69.828C87.9014 68.7173 87.6214 68.162 87.0614 68.162C86.5668 68.162 86.1608 68.414 85.8434 68.918C85.5261 69.422 85.3674 70.2667 85.3674 71.452V73.846C85.2741 73.9767 85.1108 74.042 84.8774 74.042C84.6441 74.042 84.4574 73.972 84.3174 73.832C84.1774 73.6827 84.1074 73.468 84.1074 73.188V67.868C84.2008 67.7373 84.3781 67.672 84.6394 67.672C85.1248 67.672 85.3674 68.022 85.3674 68.722C85.7594 68.022 86.3801 67.672 87.2294 67.672C87.8361 67.672 88.3168 67.8633 88.6714 68.246C89.0354 68.6287 89.2174 69.1793 89.2174 69.898V71.886C89.2174 72.418 89.3014 72.8193 89.4694 73.09C89.6374 73.3607 89.8848 73.496 90.2114 73.496C90.5474 73.496 90.8414 73.2907 91.0934 72.88C91.3454 72.46 91.4714 71.7553 91.4714 70.766C91.4808 70.71 91.5508 70.682 91.6814 70.682Z" fill="white"/>
</g>
<defs>
<filter id="filter0_d_214_114" x="0" y="0" width="158" height="158" filterUnits="userSpaceOnUse" color-interpolation-filters="sRGB">
<feFlood flood-opacity="0" result="BackgroundImageFix"/>
<feColorMatrix in="SourceAlpha" type="matrix" values="0 0 0 0 0 0 0 0 0 0 0 0 0 0 0 0 0 0 127 0" result="hardAlpha"/>
<feOffset dx="10" dy="10"/>
<feGaussianBlur stdDeviation="20"/>
<feComposite in2="hardAlpha" operator="out"/>
<feColorMatrix type="matrix" values="0 0 0 0 0 0 0 0 0 0 0 0 0 0 0 0 0 0 0.25 0"/>
<feBlend mode="normal" in2="BackgroundImageFix" result="effect1_dropShadow_214_114"/>
<feBlend mode="normal" in="SourceGraphic" in2="effect1_dropShadow_214_114" result="shape"/>
</filter>
<linearGradient id="paint0_linear_214_114" x1="46.8409" y1="35.3182" x2="81.4091" y2="101.352" gradientUnits="userSpaceOnUse">
<stop stop-color="#FF6993"/>
<stop offset="0.682292" stop-color="#CD4CD5"/>
<stop offset="1" stop-color="#9748BA"/>
</linearGradient>
</defs>
</svg>
